# Blender 3.4.1
# www.blender.org
mtllib microscope.mtl
o scanner
v 0.000000 0.000000 -0.420000
v 0.000000 0.800000 -0.420000
v 0.363720 0.800000 -0.210000
v 0.363720 0.000000 -0.210000
v 0.000000 0.800000 -0.300000
v 0.259800 0.800000 -0.150000
v 0.000000 0.000000 -0.300000
v 0.259800 0.000000 -0.150000
v 0.363720 0.800000 0.210000
v 0.363720 -0.000000 0.210000
v 0.259800 0.800000 0.150000
v 0.259800 -0.000000 0.150000
v 0.000000 0.800000 0.420000
v 0.000000 -0.000000 0.420000
v 0.000000 0.800000 0.300000
v 0.000000 -0.000000 0.300000
v -0.363720 0.800000 0.210000
v -0.363720 -0.000000 0.210000
v -0.259800 0.800000 0.150000
v -0.259800 -0.000000 0.150000
v -0.363720 0.800000 -0.210000
v -0.363720 0.000000 -0.210000
v -0.259800 0.800000 -0.150000
v -0.259800 0.000000 -0.150000
vn 0.5000 -0.0000 -0.8660
vn -0.0000 1.0000 -0.0000
vn -0.5000 -0.0000 0.8660
vn -0.0000 -1.0000 -0.0000
vn 1.0000 -0.0000 -0.0000
vn -1.0000 -0.0000 -0.0000
vn 0.5000 -0.0000 0.8660
vn -0.5000 -0.0000 -0.8660
vt 0.769400 0.046400
vt 0.010000 0.701100
vt 0.769400 0.010000
vt 0.519500 0.230600
vt 0.990000 0.010000
vt 0.548800 0.126700
vt 0.392100 0.010000
vt 0.990000 0.046400
vt 0.548800 0.163100
vt 0.137400 0.480500
vt 0.446700 0.230600
vt 0.706400 0.068400
vt 0.548800 0.068400
vt 0.355700 0.073000
vt 0.730800 0.185000
vt 0.706400 0.104800
vt 0.082800 0.701100
vt 0.548800 0.104800
vt 0.730800 0.221400
vt 0.173800 0.543600
vt 0.803500 0.126700
vt 0.548800 0.010000
vt 0.137400 0.010000
vt 0.803500 0.163100
vt 0.548800 0.046400
vt 0.392100 0.480500
vt 0.548900 0.185000
vt 0.173800 0.073000
vt 0.864000 0.068300
vt 0.548900 0.221400
vt 0.864000 0.104700
vt 0.355700 0.543600
vt 0.769400 0.010000
vt 0.010000 0.230600
vt 0.769400 0.046400
vt 0.519500 0.701100
vt 0.082800 0.230600
vt 0.706400 0.068300
vt 0.706400 0.104700
vt 0.446700 0.701100
vt 0.990000 0.010000
vt 0.548900 0.126700
vt 0.137400 0.451200
vt 0.990000 0.046400
vt 0.548900 0.163000
vt 0.392100 0.921700
vt 0.548900 0.068300
vt 0.173800 0.388200
vt 0.730700 0.185100
vt 0.548900 0.104700
vt 0.730700 0.221500
vt 0.355700 0.858700
vt 0.803600 0.126700
vt 0.548800 0.010000
vt 0.392100 0.451200
vt 0.803600 0.163000
vt 0.548800 0.046400
vt 0.137400 0.921700
vt 0.548800 0.185100
vt 0.355700 0.388200
vt 0.863900 0.068400
vt 0.548800 0.221500
vt 0.863900 0.104800
vt 0.173800 0.858700
s 1
usemtl Default_OBJ
f 1/1/1 2/3/1 3/5/1 4/8/1
f 2/4/2 5/11/2 6/14/2 3/7/2
f 5/12/3 7/16/3 8/18/3 6/13/3
f 7/17/4 1/2/4 4/10/4 8/20/4
f 4/9/5 3/6/5 9/21/5 10/24/5
f 3/7/2 6/14/2 11/28/2 9/23/2
f 6/15/6 8/19/6 12/30/6 11/27/6
f 8/20/4 4/10/4 10/26/4 12/32/4
f 10/25/7 9/22/7 13/33/7 14/35/7
f 9/23/2 11/28/2 15/37/2 13/34/2
f 11/29/8 12/31/8 16/39/8 15/38/8
f 12/32/4 10/26/4 14/36/4 16/40/4
f 14/35/3 13/33/3 17/41/3 18/44/3
f 13/34/2 15/37/2 19/48/2 17/43/2
f 15/38/1 16/39/1 20/50/1 19/47/1
f 16/40/4 14/36/4 18/46/4 20/52/4
f 18/45/6 17/42/6 21/53/6 22/56/6
f 17/43/2 19/48/2 23/60/2 21/55/2
f 19/49/5 20/51/5 24/62/5 23/59/5
f 20/52/4 18/46/4 22/58/4 24/64/4
f 22/57/8 21/54/8 2/3/8 1/1/8
f 21/55/2 23/60/2 5/11/2 2/4/2
f 23/61/7 24/63/7 7/16/7 5/12/7
f 24/64/4 22/58/4 1/2/4 7/17/4
o scanner.001
v 0.000000 0.800000 -0.336000
v 0.000000 1.600000 -0.336000
v 0.290976 1.600000 -0.168000
v 0.290976 0.800000 -0.168000
v 0.000000 1.600000 -0.240000
v 0.207840 1.600000 -0.120000
v 0.000000 0.800000 -0.240000
v 0.207840 0.800000 -0.120000
v 0.290976 1.600000 0.168000
v 0.290976 0.800000 0.168000
v 0.207840 1.600000 0.120000
v 0.207840 0.800000 0.120000
v 0.000000 1.600000 0.336000
v 0.000000 0.800000 0.336000
v 0.000000 1.600000 0.240000
v 0.000000 0.800000 0.240000
v -0.290976 1.600000 0.168000
v -0.290976 0.800000 0.168000
v -0.207840 1.600000 0.120000
v -0.207840 0.800000 0.120000
v -0.290976 1.600000 -0.168000
v -0.290976 0.800000 -0.168000
v -0.207840 1.600000 -0.120000
v -0.207840 0.800000 -0.120000
vn 0.5000 -0.0000 -0.8660
vn -0.0000 1.0000 -0.0000
vn -0.5000 -0.0000 0.8660
vn -0.0000 -1.0000 -0.0000
vn 1.0000 -0.0000 -0.0000
vn -1.0000 -0.0000 -0.0000
vn 0.5000 -0.0000 0.8660
vn -0.5000 -0.0000 -0.8660
vt 0.769400 0.046400
vt 0.010000 0.701100
vt 0.769400 0.010000
vt 0.519500 0.230600
vt 0.990000 0.010000
vt 0.548800 0.126700
vt 0.392100 0.010000
vt 0.990000 0.046400
vt 0.548800 0.163100
vt 0.137400 0.480500
vt 0.446700 0.230600
vt 0.706400 0.068400
vt 0.548800 0.068400
vt 0.355700 0.073000
vt 0.730800 0.185000
vt 0.706400 0.104800
vt 0.082800 0.701100
vt 0.548800 0.104800
vt 0.730800 0.221400
vt 0.173800 0.543600
vt 0.803500 0.126700
vt 0.548800 0.010000
vt 0.137400 0.010000
vt 0.803500 0.163100
vt 0.548800 0.046400
vt 0.392100 0.480500
vt 0.548900 0.185000
vt 0.173800 0.073000
vt 0.864000 0.068300
vt 0.548900 0.221400
vt 0.864000 0.104700
vt 0.355700 0.543600
vt 0.769400 0.010000
vt 0.010000 0.230600
vt 0.769400 0.046400
vt 0.519500 0.701100
vt 0.082800 0.230600
vt 0.706400 0.068300
vt 0.706400 0.104700
vt 0.446700 0.701100
vt 0.990000 0.010000
vt 0.548900 0.126700
vt 0.137400 0.451200
vt 0.990000 0.046400
vt 0.548900 0.163000
vt 0.392100 0.921700
vt 0.548900 0.068300
vt 0.173800 0.388200
vt 0.730700 0.185100
vt 0.548900 0.104700
vt 0.730700 0.221500
vt 0.355700 0.858700
vt 0.803600 0.126700
vt 0.548800 0.010000
vt 0.392100 0.451200
vt 0.803600 0.163000
vt 0.548800 0.046400
vt 0.137400 0.921700
vt 0.548800 0.185100
vt 0.355700 0.388200
vt 0.863900 0.068400
vt 0.548800 0.221500
vt 0.863900 0.104800
vt 0.173800 0.858700
s 1
usemtl Default_OBJ.001
f 25/65/9 26/67/9 27/69/9 28/72/9
f 26/68/10 29/75/10 30/78/10 27/71/10
f 29/76/11 31/80/11 32/82/11 30/77/11
f 31/81/12 25/66/12 28/74/12 32/84/12
f 28/73/13 27/70/13 33/85/13 34/88/13
f 27/71/10 30/78/10 35/92/10 33/87/10
f 30/79/14 32/83/14 36/94/14 35/91/14
f 32/84/12 28/74/12 34/90/12 36/96/12
f 34/89/15 33/86/15 37/97/15 38/99/15
f 33/87/10 35/92/10 39/101/10 37/98/10
f 35/93/16 36/95/16 40/103/16 39/102/16
f 36/96/12 34/90/12 38/100/12 40/104/12
f 38/99/11 37/97/11 41/105/11 42/108/11
f 37/98/10 39/101/10 43/112/10 41/107/10
f 39/102/9 40/103/9 44/114/9 43/111/9
f 40/104/12 38/100/12 42/110/12 44/116/12
f 42/109/14 41/106/14 45/117/14 46/120/14
f 41/107/10 43/112/10 47/124/10 45/119/10
f 43/113/13 44/115/13 48/126/13 47/123/13
f 44/116/12 42/110/12 46/122/12 48/128/12
f 46/121/16 45/118/16 26/67/16 25/65/16
f 45/119/10 47/124/10 29/75/10 26/68/10
f 47/125/15 48/127/15 31/80/15 29/76/15
f 48/128/12 46/122/12 25/66/12 31/81/12
o scanner.002
v 0.000000 1.600000 -0.280000
v 0.000000 2.400000 -0.280000
v 0.242480 2.400000 -0.140000
v 0.242480 1.600000 -0.140000
v 0.000000 2.400000 -0.200000
v 0.173200 2.400000 -0.100000
v 0.000000 1.600000 -0.200000
v 0.173200 1.600000 -0.100000
v 0.242480 2.400000 0.140000
v 0.242480 1.600000 0.140000
v 0.173200 2.400000 0.100000
v 0.173200 1.600000 0.100000
v 0.000000 2.400000 0.280000
v 0.000000 1.600000 0.280000
v 0.000000 2.400000 0.200000
v 0.000000 1.600000 0.200000
v -0.242480 2.400000 0.140000
v -0.242480 1.600000 0.140000
v -0.173200 2.400000 0.100000
v -0.173200 1.600000 0.100000
v -0.242480 2.400000 -0.140000
v -0.242480 1.600000 -0.140000
v -0.173200 2.400000 -0.100000
v -0.173200 1.600000 -0.100000
vn 0.5000 -0.0000 -0.8660
vn -0.0000 1.0000 -0.0000
vn -0.5000 -0.0000 0.8660
vn -0.0000 -1.0000 -0.0000
vn 1.0000 -0.0000 -0.0000
vn -1.0000 -0.0000 -0.0000
vn 0.5000 -0.0000 0.8660
vn -0.5000 -0.0000 -0.8660
vt 0.769400 0.046400
vt 0.010000 0.701100
vt 0.769400 0.010000
vt 0.519500 0.230600
vt 0.990000 0.010000
vt 0.548800 0.126700
vt 0.392100 0.010000
vt 0.990000 0.046400
vt 0.548800 0.163100
vt 0.137400 0.480500
vt 0.446700 0.230600
vt 0.706400 0.068400
vt 0.548800 0.068400
vt 0.355700 0.073000
vt 0.730800 0.185000
vt 0.706400 0.104800
vt 0.082800 0.701100
vt 0.548800 0.104800
vt 0.730800 0.221400
vt 0.173800 0.543600
vt 0.803500 0.126700
vt 0.548800 0.010000
vt 0.137400 0.010000
vt 0.803500 0.163100
vt 0.548800 0.046400
vt 0.392100 0.480500
vt 0.548900 0.185000
vt 0.173800 0.073000
vt 0.864000 0.068300
vt 0.548900 0.221400
vt 0.864000 0.104700
vt 0.355700 0.543600
vt 0.769400 0.010000
vt 0.010000 0.230600
vt 0.769400 0.046400
vt 0.519500 0.701100
vt 0.082800 0.230600
vt 0.706400 0.068300
vt 0.706400 0.104700
vt 0.446700 0.701100
vt 0.990000 0.010000
vt 0.548900 0.126700
vt 0.137400 0.451200
vt 0.990000 0.046400
vt 0.548900 0.163000
vt 0.392100 0.921700
vt 0.548900 0.068300
vt 0.173800 0.388200
vt 0.730700 0.185100
vt 0.548900 0.104700
vt 0.730700 0.221500
vt 0.355700 0.858700
vt 0.803600 0.126700
vt 0.548800 0.010000
vt 0.392100 0.451200
vt 0.803600 0.163000
vt 0.548800 0.046400
vt 0.137400 0.921700
vt 0.548800 0.185100
vt 0.355700 0.388200
vt 0.863900 0.068400
vt 0.548800 0.221500
vt 0.863900 0.104800
vt 0.173800 0.858700
s 1
usemtl Default_OBJ.002
f 49/129/17 50/131/17 51/133/17 52/136/17
f 50/132/18 53/139/18 54/142/18 51/135/18
f 53/140/19 55/144/19 56/146/19 54/141/19
f 55/145/20 49/130/20 52/138/20 56/148/20
f 52/137/21 51/134/21 57/149/21 58/152/21
f 51/135/18 54/142/18 59/156/18 57/151/18
f 54/143/22 56/147/22 60/158/22 59/155/22
f 56/148/20 52/138/20 58/154/20 60/160/20
f 58/153/23 57/150/23 61/161/23 62/163/23
f 57/151/18 59/156/18 63/165/18 61/162/18
f 59/157/24 60/159/24 64/167/24 63/166/24
f 60/160/20 58/154/20 62/164/20 64/168/20
f 62/163/19 61/161/19 65/169/19 66/172/19
f 61/162/18 63/165/18 67/176/18 65/171/18
f 63/166/17 64/167/17 68/178/17 67/175/17
f 64/168/20 62/164/20 66/174/20 68/180/20
f 66/173/22 65/170/22 69/181/22 70/184/22
f 65/171/18 67/176/18 71/188/18 69/183/18
f 67/177/21 68/179/21 72/190/21 71/187/21
f 68/180/20 66/174/20 70/186/20 72/192/20
f 70/185/24 69/182/24 50/131/24 49/129/24
f 69/183/18 71/188/18 53/139/18 50/132/18
f 71/189/23 72/191/23 55/144/23 53/140/23
f 72/192/20 70/186/20 49/130/20 55/145/20
